<?xml version="1.0" encoding="utf-8"?>
<!-- Generator: Adobe Illustrator 26.3.1, SVG Export Plug-In . SVG Version: 6.00 Build 0)  -->
<svg version="1.1" id="Ebene_1" xmlns="http://www.w3.org/2000/svg" xmlns:xlink="http://www.w3.org/1999/xlink" x="0px" y="0px"
	 viewBox="0 0 437.2 100" style="enable-background:new 0 0 437.2 100;" xml:space="preserve">
<style type="text/css">
	.st0{fill:none;}
	.st1{fill:#006FB4;}
	.st2{fill:#0970B9;}
	.st3{fill:#86BC27;}
</style>
<rect class="st0" width="437.2" height="100"/>
<g id="Text_Pfade">
	<g>
		<path class="st1" d="M26.5,66.8v18.4h-1.9v-0.9c-1.3,0.8-2.6,1.1-3.9,1.1c-0.7,0-1.3-0.1-1.8-0.3c-0.5-0.2-1-0.5-1.4-0.9
			c-0.9-0.9-1.4-2.6-1.4-5.1s0.4-4.3,1.2-5.4c0.8-1.1,2.2-1.6,4.1-1.6c1,0,2,0.1,3.1,0.3v-5.7H26.5L26.5,66.8z M19.8,83.5
			c0.3,0.1,0.7,0.2,1.2,0.2c0.5,0,1-0.1,1.6-0.2c0.6-0.2,1.1-0.3,1.4-0.5l0.5-0.2v-8.7c-1.1-0.2-2.1-0.3-3-0.3
			c-1.3,0-2.2,0.4-2.7,1.2c-0.5,0.8-0.8,2.1-0.8,3.8c0,2,0.3,3.3,0.9,4C19.2,83.1,19.5,83.4,19.8,83.5L19.8,83.5z"/>
		<path class="st1" d="M38.1,83.6l0.7-0.1l0.1,1.5c-1.9,0.3-3.6,0.4-5,0.4c-1.8,0-3.1-0.5-3.9-1.6c-0.8-1.1-1.2-2.7-1.2-5
			c0-4.5,1.8-6.7,5.3-6.7c1.7,0,3,0.5,3.9,1.4c0.9,1,1.3,2.5,1.3,4.5l-0.1,1.5h-8.4c0,1.4,0.3,2.5,0.8,3.1c0.5,0.7,1.4,1,2.7,1
			C35.5,83.7,36.8,83.7,38.1,83.6L38.1,83.6z M37.4,78c0-1.6-0.2-2.7-0.8-3.3c-0.5-0.6-1.3-1-2.5-1s-2,0.3-2.6,1
			c-0.6,0.7-0.9,1.8-0.9,3.3C30.8,78,37.4,78,37.4,78z"/>
		<path class="st1" d="M41.6,85.1V72.4h1.9v1.7c1.5-1,3-1.7,4.7-2V74c-0.7,0.1-1.5,0.4-2.2,0.6c-0.8,0.3-1.4,0.5-1.8,0.8l-0.6,0.3
			v9.4L41.6,85.1L41.6,85.1z"/>
		<path class="st1" d="M59.7,68.9c-2.6,0-3.8,1-3.8,2.9c0,1.1,0.3,1.8,0.9,2.2s1.8,0.8,3.6,1.2c1.8,0.4,3.1,0.9,3.8,1.6
			c0.8,0.6,1.1,1.7,1.1,3.2c0,3.6-1.9,5.4-5.7,5.4c-1.2,0-2.8-0.1-4.7-0.4l-0.9-0.1l0.2-1.6c2.3,0.3,4.1,0.5,5.3,0.5
			c2.5,0,3.8-1.2,3.8-3.6c0-1-0.3-1.6-0.8-2.1c-0.6-0.4-1.6-0.8-3.1-1.1c-2-0.4-3.4-1-4.2-1.6c-0.8-0.7-1.3-1.8-1.3-3.4
			c0-3.2,1.9-4.8,5.7-4.8c1.2,0,2.7,0.1,4.5,0.4l0.9,0.1l-0.2,1.7C62.4,69,60.7,68.9,59.7,68.9L59.7,68.9z"/>
		<path class="st1" d="M67.6,69.5v-2.2h1.9v2.2H67.6z M67.6,85.1V72.3h1.9v12.8H67.6z"/>
		<path class="st1" d="M81.1,83.6l0.7-0.1l0.1,1.5c-1.9,0.3-3.6,0.4-5,0.4c-1.8,0-3.1-0.5-3.9-1.6c-0.8-1.1-1.2-2.7-1.2-5
			c0-4.5,1.8-6.7,5.3-6.7c1.7,0,3,0.5,3.9,1.4s1.3,2.5,1.3,4.5l-0.1,1.5h-8.4c0,1.4,0.3,2.5,0.8,3.1s1.4,1,2.7,1
			S79.8,83.7,81.1,83.6L81.1,83.6z M80.4,78c0-1.6-0.2-2.7-0.8-3.3c-0.5-0.6-1.3-1-2.5-1c-1.1,0-2,0.3-2.6,1
			c-0.6,0.7-0.9,1.8-0.9,3.3C73.8,78,80.4,78,80.4,78z"/>
		<path class="st1" d="M94.4,66.8v18.4h-1.9v-0.9c-1.3,0.8-2.6,1.1-3.9,1.1c-0.7,0-1.3-0.1-1.8-0.3c-0.5-0.2-1-0.5-1.4-0.9
			c-0.9-0.9-1.4-2.6-1.4-5.1s0.4-4.3,1.2-5.4c0.8-1.1,2.2-1.6,4.1-1.6c1,0,2,0.1,3.1,0.3v-5.7H94.4L94.4,66.8z M87.8,83.5
			c0.3,0.1,0.7,0.2,1.2,0.2c0.5,0,1-0.1,1.6-0.2c0.6-0.2,1.1-0.3,1.4-0.5l0.5-0.2v-8.7c-1.1-0.2-2.1-0.3-3-0.3
			c-1.3,0-2.2,0.4-2.7,1.2c-0.5,0.8-0.8,2.1-0.8,3.8c0,2,0.3,3.3,0.9,4C87.2,83.1,87.5,83.4,87.8,83.5L87.8,83.5z"/>
		<path class="st1" d="M97.5,85.1V66.8h1.9v18.4H97.5z"/>
		<path class="st1" d="M110.5,72.3h1.9v12.8h-1.9v-0.9c-1.3,0.8-2.5,1.2-3.8,1.2c-1.7,0-2.9-0.5-3.5-1.4c-0.6-0.9-0.9-2.6-0.9-5
			v-6.7h1.9V79c0,1.9,0.2,3.1,0.5,3.7c0.3,0.6,1.1,0.9,2.2,0.9c0.6,0,1.1-0.1,1.7-0.2c0.6-0.2,1-0.3,1.3-0.5l0.5-0.2V72.3
			L110.5,72.3z"/>
		<path class="st1" d="M117.2,85.1h-1.9V72.4h1.9v0.9c1.4-0.8,2.7-1.2,4-1.2c1.7,0,2.9,0.5,3.4,1.4c0.6,0.9,0.9,2.6,0.9,4.9v6.8
			h-1.9v-6.7c0-1.8-0.2-3-0.5-3.6c-0.4-0.7-1.1-1-2.2-1c-0.5,0-1.1,0.1-1.7,0.2c-0.6,0.2-1.1,0.3-1.4,0.5l-0.5,0.2L117.2,85.1
			L117.2,85.1z"/>
		<path class="st1" d="M133.2,91.1c-2,0-3.5-0.3-4.3-0.8c-0.8-0.6-1.2-1.6-1.2-3c0-0.7,0.2-1.3,0.5-1.7s0.8-0.9,1.6-1.5
			c-0.5-0.3-0.7-0.9-0.7-1.8c0-0.3,0.2-0.8,0.6-1.6l0.2-0.4c-1.4-0.6-2-1.9-2-3.9c0-2.9,1.6-4.4,4.8-4.4c0.8,0,1.6,0.1,2.3,0.3
			l0.4,0.1l3.8-0.1v1.6l-2.4-0.1c0.6,0.6,0.8,1.4,0.8,2.6c0,1.6-0.4,2.7-1.2,3.4c-0.8,0.6-2,1-3.7,1c-0.5,0-0.9,0-1.2-0.1
			c-0.3,0.8-0.5,1.2-0.5,1.5c0,0.5,0.2,0.9,0.5,1c0.3,0.1,1.3,0.2,2.9,0.2c1.6,0,2.8,0.3,3.5,0.8c0.7,0.5,1.1,1.5,1.1,3
			C138.9,89.8,137,91.1,133.2,91.1L133.2,91.1z M129.6,87.1c0,0.9,0.2,1.5,0.8,1.9c0.5,0.4,1.4,0.5,2.8,0.5s2.3-0.2,2.9-0.6
			c0.6-0.4,0.9-1,0.9-1.9c0-0.9-0.2-1.4-0.6-1.7c-0.4-0.3-1.3-0.4-2.5-0.4l-2.8-0.1c-0.6,0.4-0.9,0.8-1.1,1.1
			C129.7,86.3,129.6,86.7,129.6,87.1L129.6,87.1z M129.8,76.5c0,1,0.2,1.7,0.7,2.1c0.5,0.4,1.2,0.6,2.2,0.6c1,0,1.8-0.2,2.2-0.6
			c0.4-0.4,0.7-1.1,0.7-2.2c0-1-0.2-1.7-0.7-2.2c-0.4-0.4-1.2-0.6-2.2-0.6c-1,0-1.8,0.2-2.2,0.6C130,74.7,129.8,75.4,129.8,76.5
			L129.8,76.5z"/>
		<path class="st1" d="M144.7,73.8c-1.9,0-2.8,0.6-2.8,1.9c0,0.6,0.2,1,0.6,1.3c0.4,0.2,1.4,0.5,2.9,0.8c1.5,0.3,2.6,0.6,3.2,1.1
			c0.6,0.5,0.9,1.4,0.9,2.7c0,1.3-0.4,2.3-1.3,2.9c-0.8,0.6-2.1,0.9-3.7,0.9c-1.1,0-2.3-0.1-3.7-0.4l-0.8-0.1l0.1-1.7
			c1.9,0.3,3.4,0.4,4.4,0.4s1.7-0.2,2.3-0.5c0.5-0.3,0.8-0.8,0.8-1.6c0-0.7-0.2-1.2-0.7-1.5c-0.4-0.3-1.4-0.5-2.9-0.8
			c-1.5-0.2-2.6-0.6-3.2-1.1c-0.6-0.5-0.9-1.3-0.9-2.6s0.4-2.2,1.3-2.8c0.9-0.6,2-0.9,3.3-0.9c1,0,2.3,0.1,3.9,0.4l0.7,0.1l-0.1,1.6
			C147.3,73.9,145.8,73.8,144.7,73.8L144.7,73.8z"/>
		<path class="st1" d="M151.4,79v-1.8h7.8V79H151.4z"/>
		<path class="st1" d="M174.8,72.3h1.9v12.8h-1.9v-0.9c-1.3,0.8-2.5,1.2-3.8,1.2c-1.7,0-2.9-0.5-3.5-1.4c-0.6-0.9-0.9-2.6-0.9-5
			v-6.7h1.9V79c0,1.9,0.2,3.1,0.5,3.7c0.3,0.6,1.1,0.9,2.2,0.9c0.6,0,1.1-0.1,1.7-0.2c0.6-0.2,1-0.3,1.3-0.5l0.5-0.2V72.3
			L174.8,72.3z"/>
		<path class="st1" d="M181.5,85.1h-1.9V72.4h1.9v0.9c1.4-0.8,2.7-1.2,4-1.2c1.7,0,2.9,0.5,3.4,1.4c0.6,0.9,0.9,2.6,0.9,4.9v6.8
			h-1.9v-6.7c0-1.8-0.2-3-0.5-3.6c-0.4-0.6-1.1-1-2.2-1c-0.5,0-1.1,0.1-1.7,0.2s-1.1,0.3-1.4,0.5l-0.5,0.2L181.5,85.1L181.5,85.1z"
			/>
		<path class="st1" d="M202.4,66.8v18.4h-1.9v-0.9c-1.3,0.8-2.6,1.1-3.9,1.1c-0.7,0-1.3-0.1-1.8-0.3c-0.5-0.2-1-0.5-1.4-0.9
			c-0.9-0.9-1.4-2.6-1.4-5.1s0.4-4.3,1.2-5.4c0.8-1.1,2.2-1.6,4.1-1.6c1,0,2,0.1,3.1,0.3v-5.7H202.4L202.4,66.8z M195.8,83.5
			c0.3,0.1,0.7,0.2,1.2,0.2s1-0.1,1.6-0.2s1.1-0.3,1.4-0.5l0.5-0.2v-8.7c-1.1-0.2-2.1-0.3-3-0.3c-1.3,0-2.2,0.4-2.7,1.2
			s-0.8,2.1-0.8,3.8c0,2,0.3,3.3,0.9,4C195.2,83.1,195.5,83.4,195.8,83.5L195.8,83.5z"/>
		<path class="st1" d="M210.5,85.1V67.4h10.6v1.7h-8.6v6.9h7.3v1.7h-7.3v7.3L210.5,85.1L210.5,85.1z"/>
		<path class="st1" d="M222.4,85.1V72.4h1.9v1.7c1.5-1,3-1.7,4.7-2V74c-0.7,0.1-1.5,0.4-2.2,0.6c-0.8,0.3-1.4,0.5-1.8,0.8l-0.6,0.3
			v9.4L222.4,85.1L222.4,85.1z"/>
		<path class="st1" d="M238.9,83.6l0.7-0.1l0.1,1.5c-1.9,0.3-3.6,0.4-5,0.4c-1.8,0-3.1-0.5-3.9-1.6c-0.8-1.1-1.2-2.7-1.2-5
			c0-4.5,1.8-6.7,5.3-6.7c1.7,0,3,0.5,3.9,1.4s1.3,2.5,1.3,4.5l-0.1,1.5h-8.4c0,1.4,0.3,2.5,0.8,3.1s1.4,1,2.7,1
			C236.3,83.7,237.6,83.7,238.9,83.6z M238.2,78c0-1.6-0.2-2.7-0.8-3.3c-0.5-0.6-1.3-1-2.5-1c-1.1,0-2,0.3-2.6,1
			c-0.6,0.7-0.9,1.8-0.9,3.3C231.5,78,238.2,78,238.2,78z"/>
		<path class="st1" d="M242.3,69.5v-2.2h1.9v2.2H242.3z M242.3,85.1V72.3h1.9v12.8H242.3z"/>
		<path class="st1" d="M247.2,85.1V72.4h1.9v1.7c1.5-1,3-1.7,4.7-2V74c-0.7,0.1-1.5,0.4-2.2,0.6c-0.8,0.3-1.4,0.5-1.8,0.8l-0.6,0.3
			v9.4L247.2,85.1L247.2,85.1z"/>
		<path class="st1" d="M264.3,76.2v6.5c0.1,0.6,0.5,1,1.5,1.1l-0.1,1.5c-1.4,0-2.4-0.3-3-1c-1.5,0.7-3.1,1-4.6,1
			c-1.2,0-2.1-0.3-2.7-1c-0.6-0.7-0.9-1.6-0.9-2.9s0.3-2.2,0.9-2.8c0.6-0.6,1.6-0.9,3-1.1l4-0.4v-1.1c0-0.9-0.2-1.5-0.6-1.9
			s-0.9-0.6-1.5-0.6c-1.4,0-2.8,0.1-4.2,0.3l-0.8,0.1l-0.1-1.5c1.9-0.4,3.5-0.6,5-0.6s2.5,0.3,3.2,1C264,73.7,264.3,74.8,264.3,76.2
			L264.3,76.2z M256.4,81.4c0,1.6,0.6,2.4,1.9,2.4c1.2,0,2.3-0.2,3.4-0.6l0.6-0.2v-4.2l-3.8,0.4c-0.8,0.1-1.3,0.3-1.7,0.7
			C256.6,80.2,256.4,80.7,256.4,81.4L256.4,81.4z"/>
		<path class="st1" d="M275.3,72.3h1.9v12.8h-1.9v-0.9c-1.3,0.8-2.5,1.2-3.8,1.2c-1.7,0-2.9-0.5-3.5-1.4c-0.6-0.9-0.9-2.6-0.9-5
			v-6.7h1.9V79c0,1.9,0.2,3.1,0.5,3.7c0.3,0.6,1.1,0.9,2.2,0.9c0.6,0,1.1-0.1,1.7-0.2c0.6-0.2,1-0.3,1.3-0.5l0.5-0.2L275.3,72.3
			L275.3,72.3z"/>
		<path class="st1" d="M282,85.1h-1.9V72.4h1.9v0.9c1.3-0.8,2.5-1.2,3.7-1.2c1.6,0,2.7,0.4,3.3,1.3c0.6-0.3,1.3-0.6,2.2-0.9
			c0.9-0.3,1.7-0.4,2.4-0.4c1.7,0,2.9,0.5,3.4,1.4c0.6,0.9,0.9,2.6,0.9,4.9v6.8H296v-6.7c0-1.8-0.2-3-0.5-3.6c-0.3-0.6-1.1-1-2.2-1
			c-0.6,0-1.1,0.1-1.7,0.2s-1.1,0.3-1.4,0.5l-0.5,0.2c0.2,0.6,0.3,1.8,0.3,3.7v6.7h-1.9v-6.6c0-1.8-0.2-3.1-0.5-3.7
			c-0.3-0.6-1.1-1-2.2-1c-0.5,0-1.1,0.1-1.7,0.2c-0.6,0.2-1,0.3-1.3,0.5l-0.4,0.2L282,85.1L282,85.1z"/>
		<path class="st1" d="M309.4,83.6l0.7-0.1l0.1,1.5c-1.9,0.3-3.6,0.4-5,0.4c-1.8,0-3.1-0.5-3.9-1.6c-0.8-1.1-1.2-2.7-1.2-5
			c0-4.5,1.8-6.7,5.3-6.7c1.7,0,3,0.5,3.9,1.4s1.3,2.5,1.3,4.5l-0.1,1.5h-8.4c0,1.4,0.3,2.5,0.8,3.1s1.4,1,2.7,1
			S308.1,83.7,309.4,83.6L309.4,83.6z M308.7,78c0-1.6-0.2-2.7-0.8-3.3c-0.5-0.6-1.3-1-2.5-1c-1.1,0-2,0.3-2.6,1
			c-0.6,0.7-0.9,1.8-0.9,3.3C302.1,78,308.7,78,308.7,78z"/>
		<path class="st1" d="M314.8,85.1h-1.9V72.4h1.9v0.9c1.4-0.8,2.7-1.2,4-1.2c1.7,0,2.9,0.5,3.4,1.4c0.6,0.9,0.9,2.6,0.9,4.9v6.8
			h-1.9v-6.7c0-1.8-0.2-3-0.5-3.6c-0.4-0.6-1.1-1-2.2-1c-0.5,0-1.1,0.1-1.7,0.2s-1.1,0.3-1.4,0.5l-0.5,0.2L314.8,85.1L314.8,85.1z"
			/>
		<path class="st1" d="M331.9,74h-4.1v6.1c0,1.5,0.1,2.4,0.3,2.9c0.2,0.5,0.7,0.7,1.5,0.7l2.3-0.2l0.1,1.6c-1.1,0.2-2,0.3-2.6,0.3
			c-1.3,0-2.2-0.3-2.8-1s-0.8-1.9-0.8-3.7V74h-1.8v-1.7h1.8v-3.9h1.9v3.9h4.1V74z"/>
		<path class="st1" d="M332.9,72.3h1.9l2.6,11.1h0.4l3-10.9h2l3,10.9h0.4l2.6-11.1h1.9l-3,12.8h-3.2l-2.7-10l-2.7,10h-3.2
			L332.9,72.3L332.9,72.3z"/>
		<path class="st1" d="M352.7,69.5v-2.2h1.9v2.2H352.7z M352.7,85.1V72.3h1.9v12.8H352.7z"/>
		<path class="st1" d="M362.3,72.1c0.6,0,1.5,0.1,2.9,0.3l0.6,0.1l-0.1,1.6c-1.4-0.2-2.4-0.2-3-0.2c-1.5,0-2.4,0.3-2.9,1
			s-0.8,2-0.8,3.8s0.2,3.2,0.7,3.9s1.5,1.1,3,1.1l3-0.2l0.1,1.6c-1.6,0.2-2.8,0.4-3.6,0.4c-2,0-3.4-0.5-4.1-1.5
			c-0.8-1-1.1-2.8-1.1-5.2c0-2.4,0.4-4.1,1.2-5.1C359,72.6,360.4,72.1,362.3,72.1L362.3,72.1z"/>
		<path class="st1" d="M369.8,85.1h-1.9V66.8h1.9v10.8l2-0.1l3.7-5.2h2.2l-4.2,5.9l4.4,6.9h-2.2l-3.8-5.9l-2,0.1L369.8,85.1
			L369.8,85.1z"/>
		<path class="st1" d="M379.5,85.1V66.8h1.9v18.4H379.5z"/>
		<path class="st1" d="M392.5,72.3h1.9v12.8h-1.9v-0.9c-1.3,0.8-2.5,1.2-3.8,1.2c-1.7,0-2.9-0.5-3.5-1.4c-0.6-0.9-0.9-2.6-0.9-5
			v-6.7h1.9V79c0,1.9,0.2,3.1,0.5,3.7c0.3,0.6,1.1,0.9,2.2,0.9c0.6,0,1.1-0.1,1.7-0.2c0.6-0.2,1-0.3,1.3-0.5l0.5-0.2L392.5,72.3
			L392.5,72.3z"/>
		<path class="st1" d="M399.3,85.1h-1.9V72.4h1.9v0.9c1.4-0.8,2.7-1.2,4-1.2c1.7,0,2.9,0.5,3.4,1.4c0.6,0.9,0.9,2.6,0.9,4.9v6.8
			h-1.9v-6.7c0-1.8-0.2-3-0.5-3.6c-0.4-0.6-1.1-1-2.2-1c-0.5,0-1.1,0.1-1.7,0.2c-0.6,0.2-1.1,0.3-1.4,0.5l-0.5,0.2L399.3,85.1
			L399.3,85.1z"/>
		<path class="st1" d="M415.2,91.1c-2,0-3.5-0.3-4.3-0.8s-1.2-1.6-1.2-3c0-0.7,0.2-1.3,0.5-1.7c0.3-0.4,0.8-0.9,1.6-1.5
			c-0.5-0.3-0.7-0.9-0.7-1.8c0-0.3,0.2-0.8,0.6-1.6l0.2-0.4c-1.4-0.6-2-1.9-2-3.9c0-2.9,1.6-4.4,4.8-4.4c0.8,0,1.6,0.1,2.3,0.3
			l0.4,0.1l3.8-0.1v1.6l-2.4-0.1c0.6,0.6,0.8,1.4,0.8,2.6c0,1.6-0.4,2.7-1.2,3.4c-0.8,0.6-2,1-3.7,1c-0.5,0-0.9,0-1.2-0.1
			c-0.3,0.8-0.5,1.2-0.5,1.5c0,0.5,0.2,0.9,0.5,1c0.3,0.1,1.3,0.2,2.9,0.2s2.8,0.3,3.5,0.8s1.1,1.5,1.1,3
			C420.9,89.8,419,91.1,415.2,91.1L415.2,91.1z M411.6,87.1c0,0.9,0.2,1.5,0.8,1.9c0.5,0.4,1.4,0.5,2.8,0.5c1.4,0,2.3-0.2,2.9-0.6
			c0.6-0.4,0.9-1,0.9-1.9c0-0.9-0.2-1.4-0.6-1.7c-0.4-0.3-1.3-0.4-2.5-0.4l-2.8-0.1c-0.6,0.4-0.9,0.8-1.1,1.1
			C411.7,86.3,411.6,86.7,411.6,87.1L411.6,87.1z M411.8,76.5c0,1,0.2,1.7,0.7,2.1c0.5,0.4,1.2,0.6,2.2,0.6c1,0,1.8-0.2,2.2-0.6
			c0.4-0.4,0.7-1.1,0.7-2.2c0-1-0.2-1.7-0.7-2.2c-0.4-0.4-1.2-0.6-2.2-0.6c-1,0-1.8,0.2-2.2,0.6S411.8,75.4,411.8,76.5L411.8,76.5z"
			/>
	</g>
	<g>
		<path class="st2" d="M16.1,14.9h14l7.1,29.5l7.1-29.5h14v40.4h-8.2V24h-0.9l-7.9,29.5h-8.2L25.2,24h-0.9v31.3h-8.2L16.1,14.9
			L16.1,14.9z"/>
		<path class="st2" d="M92.1,40.4c0,9.1-3.3,15.6-13.7,15.6s-13.7-6.5-13.7-15.6s3.3-15.5,13.7-15.5S92.1,31.2,92.1,40.4z M84,40.4
			c0-5.8-1.2-8.7-5.6-8.7c-4.4,0-5.6,3-5.6,8.7s1.2,8.8,5.6,8.8C82.8,49.2,84,46.1,84,40.4z"/>
		<path class="st2" d="M98.2,55.3V25.6h7.9v1.7c0,0,4-2.4,7.4-2.4c8.3,0,10.5,5.2,10.5,14.3v16.1h-8V39.4c0-4.5-0.6-7.4-4.5-7.4
			c-2.8,0-5.4,1.1-5.4,1.1v22.2L98.2,55.3L98.2,55.3z"/>
		<path class="st2" d="M131.3,13.7h8v8.1h-8C131.3,21.8,131.3,13.7,131.3,13.7z M131.3,25.6h8v29.7h-8
			C131.3,55.3,131.3,25.6,131.3,25.6z"/>
		<path class="st2" d="M156.1,32.3v12.2c0,3,0,4.3,2.5,4.3c1.7,0,4.5-0.1,4.5-0.1l0.4,6.4c0,0-4,0.9-6.1,0.9
			c-7.2,0-9.3-2.7-9.3-11.3V32.3h-3.5v-6.8h3.5v-8.3h8v8.3h7.3v6.8C163.4,32.3,156.1,32.3,156.1,32.3z"/>
		<path class="st2" d="M194.7,40.4c0,9.1-3.3,15.6-13.7,15.6s-13.7-6.5-13.7-15.6s3.3-15.5,13.7-15.5S194.7,31.2,194.7,40.4z
			 M186.6,40.4c0-5.8-1.2-8.7-5.6-8.7c-4.4,0-5.6,3-5.6,8.7s1.2,8.8,5.6,8.8C185.4,49.2,186.6,46.1,186.6,40.4z"/>
		<path class="st2" d="M200.8,25.6h7.9v3.1c0,0,5-3,9.5-3.9v8c-5.2,1-9.4,2.5-9.4,2.5v19.9h-8V25.6z"/>
	</g>
</g>
<g id="Logo_Balken">
	<g>
		<rect x="233.9" y="44.9" class="st3" width="16.1" height="10.4"/>
		<rect x="258.4" y="40.4" class="st3" width="16.1" height="14.9"/>
		<rect x="282.8" y="39.1" class="st3" width="16.1" height="16.2"/>
		<rect x="307.3" y="40.4" class="st3" width="16.1" height="14.9"/>
		<rect x="331.7" y="35.3" class="st3" width="16.1" height="20"/>
		<rect x="356.2" y="30.1" class="st2" width="16.1" height="25.1"/>
		<rect x="380.6" y="21.7" class="st2" width="16.1" height="33.6"/>
		<rect x="405.1" y="14.9" class="st2" width="16.1" height="40.4"/>
	</g>
</g>
</svg>
