<?xml version="1.0" standalone="no"?>
<svg xmlns="http://www.w3.org/2000/svg" width="500" height="500"><defs><clipPath id="clip-path-dot-color"><path d="M 28 124v 12h 12v -6a 6 6, 0, 0, 0, -6 -6" transform="rotate(-90,34,130)"/><rect x="28" y="136" width="12" height="12" transform="rotate(0,34,142)"/><path d="M 28 148v 12h 6a 6 6, 0, 0, 0, 0 -12" transform="rotate(90,34,154)"/><path d="M 28 184v 12h 12v -6a 6 6, 0, 0, 0, -6 -6" transform="rotate(-90,34,190)"/><rect x="28" y="196" width="12" height="12" transform="rotate(0,34,202)"/><path d="M 28 208v 12h 12v -6a 6 6, 0, 0, 0, -6 -6" transform="rotate(180,34,214)"/><path d="M 28 232v 12h 6a 6 6, 0, 0, 0, 0 -12" transform="rotate(180,34,238)"/><path d="M 28 268v 12h 6a 6 6, 0, 0, 0, 0 -12" transform="rotate(-90,34,274)"/><path d="M 28 280v 12h 12v -6a 6 6, 0, 0, 0, -6 -6" transform="rotate(180,34,286)"/><path d="M 28 304v 12h 6a 6 6, 0, 0, 0, 0 -12" transform="rotate(-90,34,310)"/><path d="M 28 316v 12h 6a 6 6, 0, 0, 0, 0 -12" transform="rotate(90,34,322)"/><path d="M 28 340v 12h 6a 6 6, 0, 0, 0, 0 -12" transform="rotate(180,34,346)"/><path d="M 40 124v 12h 6a 6 6, 0, 0, 0, 0 -12" transform="rotate(0,46,130)"/><path d="M 40 160v 12h 6a 6 6, 0, 0, 0, 0 -12" transform="rotate(-90,46,166)"/><rect x="40" y="172" width="12" height="12" transform="rotate(0,46,178)"/><rect x="40" y="184" width="12" height="12" transform="rotate(0,46,190)"/><rect x="40" y="196" width="12" height="12" transform="rotate(0,46,202)"/><path d="M 40 208v 12h 12v -6a 6 6, 0, 0, 0, -6 -6" transform="rotate(90,46,214)"/><rect x="40" y="232" width="12" height="12" transform="rotate(0,46,238)"/><circle cx="46" cy="262" r="6" transform="rotate(0,46,262)"/><rect x="40" y="280" width="12" height="12" transform="rotate(0,46,286)"/><path d="M 40 292v 12h 12v -6a 6 6, 0, 0, 0, -6 -6" transform="rotate(180,46,298)"/><rect x="40" y="340" width="12" height="12" transform="rotate(0,46,346)"/><path d="M 40 364v 12h 6a 6 6, 0, 0, 0, 0 -12" transform="rotate(180,46,370)"/><path d="M 52 136v 12h 6a 6 6, 0, 0, 0, 0 -12" transform="rotate(-90,58,142)"/><path d="M 52 148v 12h 6a 6 6, 0, 0, 0, 0 -12" transform="rotate(90,58,154)"/><path d="M 52 184v 12h 6a 6 6, 0, 0, 0, 0 -12" transform="rotate(0,58,190)"/><rect x="52" y="232" width="12" height="12" transform="rotate(0,58,238)"/><path d="M 52 268v 12h 12v -6a 6 6, 0, 0, 0, -6 -6" transform="rotate(-90,58,274)"/><rect x="52" y="280" width="12" height="12" transform="rotate(0,58,286)"/><path d="M 52 292v 12h 12v -6a 6 6, 0, 0, 0, -6 -6" transform="rotate(90,58,298)"/><path d="M 52 316v 12h 6a 6 6, 0, 0, 0, 0 -12" transform="rotate(180,58,322)"/><path d="M 52 340v 12h 12v -6a 6 6, 0, 0, 0, -6 -6" transform="rotate(0,58,346)"/><rect x="52" y="352" width="12" height="12" transform="rotate(0,58,358)"/><rect x="52" y="364" width="12" height="12" transform="rotate(0,58,370)"/><circle cx="70" cy="214" r="6" transform="rotate(0,70,214)"/><rect x="64" y="232" width="12" height="12" transform="rotate(0,70,238)"/><path d="M 64 244v 12h 12v -6a 6 6, 0, 0, 0, -6 -6" transform="rotate(180,70,250)"/><rect x="64" y="268" width="12" height="12" transform="rotate(0,70,274)"/><path d="M 64 280v 12h 12v -6a 6 6, 0, 0, 0, -6 -6" transform="rotate(90,70,286)"/><path d="M 64 316v 12h 12v -6a 6 6, 0, 0, 0, -6 -6" transform="rotate(0,70,322)"/><path d="M 64 328v 12h 6a 6 6, 0, 0, 0, 0 -12" transform="rotate(90,70,334)"/><path d="M 64 364v 12h 6a 6 6, 0, 0, 0, 0 -12" transform="rotate(0,70,370)"/><path d="M 76 136v 12h 12v -6a 6 6, 0, 0, 0, -6 -6" transform="rotate(-90,82,142)"/><rect x="76" y="148" width="12" height="12" transform="rotate(0,82,154)"/><rect x="76" y="160" width="12" height="12" transform="rotate(0,82,166)"/><rect x="76" y="172" width="12" height="12" transform="rotate(0,82,178)"/><rect x="76" y="184" width="12" height="12" transform="rotate(0,82,190)"/><path d="M 76 196v 12h 12v -6a 6 6, 0, 0, 0, -6 -6" transform="rotate(180,82,202)"/><path d="M 76 220v 12h 12v -6a 6 6, 0, 0, 0, -6 -6" transform="rotate(-90,82,226)"/><rect x="76" y="232" width="12" height="12" transform="rotate(0,82,238)"/><rect x="76" y="244" width="12" height="12" transform="rotate(0,82,250)"/><rect x="76" y="256" width="12" height="12" transform="rotate(0,82,262)"/><rect x="76" y="268" width="12" height="12" transform="rotate(0,82,274)"/><circle cx="82" cy="310" r="6" transform="rotate(0,82,310)"/><path d="M 88 136v 12h 6a 6 6, 0, 0, 0, 0 -12" transform="rotate(0,94,142)"/><path d="M 88 160v 12h 6a 6 6, 0, 0, 0, 0 -12" transform="rotate(0,94,166)"/><path d="M 88 184v 12h 12v -6a 6 6, 0, 0, 0, -6 -6" transform="rotate(0,94,190)"/><rect x="88" y="196" width="12" height="12" transform="rotate(0,94,202)"/><rect x="88" y="208" width="12" height="12" transform="rotate(0,94,214)"/><rect x="88" y="220" width="12" height="12" transform="rotate(0,94,226)"/><path d="M 88 232v 12h 12v -6a 6 6, 0, 0, 0, -6 -6" transform="rotate(90,94,238)"/><path d="M 88 256v 12h 12v -6a 6 6, 0, 0, 0, -6 -6" transform="rotate(0,94,262)"/><rect x="88" y="268" width="12" height="12" transform="rotate(0,94,274)"/><rect x="88" y="280" width="12" height="12" transform="rotate(0,94,286)"/><path d="M 88 292v 12h 12v -6a 6 6, 0, 0, 0, -6 -6" transform="rotate(180,94,298)"/><path d="M 88 316v 12h 6a 6 6, 0, 0, 0, 0 -12" transform="rotate(180,94,322)"/><path d="M 88 364v 12h 6a 6 6, 0, 0, 0, 0 -12" transform="rotate(180,94,370)"/><circle cx="106" cy="130" r="6" transform="rotate(0,106,130)"/><path d="M 100 148v 12h 6a 6 6, 0, 0, 0, 0 -12" transform="rotate(180,106,154)"/><path d="M 100 172v 12h 6a 6 6, 0, 0, 0, 0 -12" transform="rotate(180,106,178)"/><path d="M 100 196v 12h 6a 6 6, 0, 0, 0, 0 -12" transform="rotate(0,106,202)"/><rect x="100" y="220" width="12" height="12" transform="rotate(0,106,226)"/><path d="M 100 244v 12h 6a 6 6, 0, 0, 0, 0 -12" transform="rotate(180,106,250)"/><path d="M 100 268v 12h 6a 6 6, 0, 0, 0, 0 -12" transform="rotate(0,106,274)"/><rect x="100" y="292" width="12" height="12" transform="rotate(0,106,298)"/><rect x="100" y="316" width="12" height="12" transform="rotate(0,106,322)"/><path d="M 100 340v 12h 6a 6 6, 0, 0, 0, 0 -12" transform="rotate(180,106,346)"/><rect x="100" y="364" width="12" height="12" transform="rotate(0,106,370)"/><path d="M 112 136v 12h 6a 6 6, 0, 0, 0, 0 -12" transform="rotate(-90,118,142)"/><rect x="112" y="148" width="12" height="12" transform="rotate(0,118,154)"/><rect x="112" y="160" width="12" height="12" transform="rotate(0,118,166)"/><rect x="112" y="172" width="12" height="12" transform="rotate(0,118,178)"/><path d="M 112 184v 12h 12v -6a 6 6, 0, 0, 0, -6 -6" transform="rotate(180,118,190)"/><path d="M 112 208v 12h 6a 6 6, 0, 0, 0, 0 -12" transform="rotate(-90,118,214)"/><path d="M 112 220v 12h 12v -6a 6 6, 0, 0, 0, -6 -6" transform="rotate(90,118,226)"/><path d="M 112 244v 12h 6a 6 6, 0, 0, 0, 0 -12" transform="rotate(0,118,250)"/><rect x="112" y="292" width="12" height="12" transform="rotate(0,118,298)"/><rect x="112" y="316" width="12" height="12" transform="rotate(0,118,322)"/><path d="M 112 340v 12h 12v -6a 6 6, 0, 0, 0, -6 -6" transform="rotate(0,118,346)"/><rect x="112" y="352" width="12" height="12" transform="rotate(0,118,358)"/><path d="M 112 364v 12h 12v -6a 6 6, 0, 0, 0, -6 -6" transform="rotate(90,118,370)"/><circle cx="130" cy="46" r="6" transform="rotate(0,130,46)"/><path d="M 124 100v 12h 6a 6 6, 0, 0, 0, 0 -12" transform="rotate(-90,130,106)"/><rect x="124" y="112" width="12" height="12" transform="rotate(0,130,118)"/><path d="M 124 124v 12h 6a 6 6, 0, 0, 0, 0 -12" transform="rotate(90,130,130)"/><path d="M 124 160v 12h 6a 6 6, 0, 0, 0, 0 -12" transform="rotate(0,130,166)"/><path d="M 124 184v 12h 6a 6 6, 0, 0, 0, 0 -12" transform="rotate(0,130,190)"/><circle cx="130" cy="274" r="6" transform="rotate(0,130,274)"/><path d="M 124 292v 12h 12v -6a 6 6, 0, 0, 0, -6 -6" transform="rotate(0,130,298)"/><rect x="124" y="304" width="12" height="12" transform="rotate(0,130,310)"/><rect x="124" y="316" width="12" height="12" transform="rotate(0,130,322)"/><path d="M 124 376v 12h 6a 6 6, 0, 0, 0, 0 -12" transform="rotate(180,130,382)"/><path d="M 124 448v 12h 6a 6 6, 0, 0, 0, 0 -12" transform="rotate(-90,130,454)"/><path d="M 124 460v 12h 6a 6 6, 0, 0, 0, 0 -12" transform="rotate(90,130,466)"/><path d="M 136 52v 12h 6a 6 6, 0, 0, 0, 0 -12" transform="rotate(-90,142,58)"/><path d="M 136 64v 12h 12v -6a 6 6, 0, 0, 0, -6 -6" transform="rotate(180,142,70)"/><path d="M 136 208v 12h 6a 6 6, 0, 0, 0, 0 -12" transform="rotate(180,142,214)"/><path d="M 136 244v 12h 12v -6a 6 6, 0, 0, 0, -6 -6" transform="rotate(-90,142,250)"/><path d="M 136 256v 12h 6a 6 6, 0, 0, 0, 0 -12" transform="rotate(90,142,262)"/><path d="M 136 304v 12h 12v -6a 6 6, 0, 0, 0, -6 -6" transform="rotate(0,142,310)"/><rect x="136" y="316" width="12" height="12" transform="rotate(0,142,322)"/><path d="M 136 328v 12h 12v -6a 6 6, 0, 0, 0, -6 -6" transform="rotate(180,142,334)"/><path d="M 136 376v 12h 12v -6a 6 6, 0, 0, 0, -6 -6" transform="rotate(0,142,382)"/><path d="M 136 388v 12h 12v -6a 6 6, 0, 0, 0, -6 -6" transform="rotate(180,142,394)"/><path d="M 136 412v 12h 6a 6 6, 0, 0, 0, 0 -12" transform="rotate(-90,142,418)"/><rect x="136" y="424" width="12" height="12" transform="rotate(0,142,430)"/><path d="M 136 436v 12h 6a 6 6, 0, 0, 0, 0 -12" transform="rotate(90,142,442)"/><path d="M 148 28v 12h 6a 6 6, 0, 0, 0, 0 -12" transform="rotate(180,154,34)"/><rect x="148" y="64" width="12" height="12" transform="rotate(0,154,70)"/><path d="M 148 88v 12h 6a 6 6, 0, 0, 0, 0 -12" transform="rotate(-90,154,94)"/><path d="M 148 100v 12h 6a 6 6, 0, 0, 0, 0 -12" transform="rotate(90,154,106)"/><circle cx="154" cy="166" r="6" transform="rotate(0,154,166)"/><path d="M 148 184v 12h 6a 6 6, 0, 0, 0, 0 -12" transform="rotate(-90,154,190)"/><rect x="148" y="196" width="12" height="12" transform="rotate(0,154,202)"/><rect x="148" y="208" width="12" height="12" transform="rotate(0,154,214)"/><rect x="148" y="220" width="12" height="12" transform="rotate(0,154,226)"/><rect x="148" y="232" width="12" height="12" transform="rotate(0,154,238)"/><path d="M 148 244v 12h 12v -6a 6 6, 0, 0, 0, -6 -6" transform="rotate(90,154,250)"/><path d="M 148 328v 12h 12v -6a 6 6, 0, 0, 0, -6 -6" transform="rotate(0,154,334)"/><path d="M 148 340v 12h 12v -6a 6 6, 0, 0, 0, -6 -6" transform="rotate(180,154,346)"/><rect x="148" y="388" width="12" height="12" transform="rotate(0,154,394)"/><path d="M 148 400v 12h 6a 6 6, 0, 0, 0, 0 -12" transform="rotate(90,154,406)"/><path d="M 148 424v 12h 6a 6 6, 0, 0, 0, 0 -12" transform="rotate(0,154,430)"/><path d="M 148 448v 12h 6a 6 6, 0, 0, 0, 0 -12" transform="rotate(-90,154,454)"/><path d="M 148 460v 12h 6a 6 6, 0, 0, 0, 0 -12" transform="rotate(90,154,466)"/><path d="M 160 28v 12h 6a 6 6, 0, 0, 0, 0 -12" transform="rotate(0,166,34)"/><rect x="160" y="64" width="12" height="12" transform="rotate(0,166,70)"/><path d="M 160 76v 12h 6a 6 6, 0, 0, 0, 0 -12" transform="rotate(90,166,82)"/><path d="M 160 112v 12h 6a 6 6, 0, 0, 0, 0 -12" transform="rotate(180,166,118)"/><circle cx="166" cy="154" r="6" transform="rotate(0,166,154)"/><rect x="160" y="208" width="12" height="12" transform="rotate(0,166,214)"/><path d="M 160 232v 12h 6a 6 6, 0, 0, 0, 0 -12" transform="rotate(0,166,238)"/><circle cx="166" cy="310" r="6" transform="rotate(0,166,310)"/><path d="M 160 340v 12h 12v -6a 6 6, 0, 0, 0, -6 -6" transform="rotate(0,166,346)"/><rect x="160" y="352" width="12" height="12" transform="rotate(0,166,358)"/><path d="M 160 364v 12h 12v -6a 6 6, 0, 0, 0, -6 -6" transform="rotate(180,166,370)"/><rect x="160" y="388" width="12" height="12" transform="rotate(0,166,394)"/><path d="M 172 40v 12h 6a 6 6, 0, 0, 0, 0 -12" transform="rotate(-90,178,46)"/><rect x="172" y="52" width="12" height="12" transform="rotate(0,178,58)"/><rect x="172" y="64" width="12" height="12" transform="rotate(0,178,70)"/><path d="M 172 100v 12h 6a 6 6, 0, 0, 0, 0 -12" transform="rotate(-90,178,106)"/><rect x="172" y="112" width="12" height="12" transform="rotate(0,178,118)"/><path d="M 172 124v 12h 6a 6 6, 0, 0, 0, 0 -12" transform="rotate(90,178,130)"/><circle cx="178" cy="178" r="6" transform="rotate(0,178,178)"/><path d="M 172 208v 12h 12v -6a 6 6, 0, 0, 0, -6 -6" transform="rotate(0,178,214)"/><path d="M 172 220v 12h 6a 6 6, 0, 0, 0, 0 -12" transform="rotate(90,178,226)"/><circle cx="178" cy="322" r="6" transform="rotate(0,178,322)"/><path d="M 172 364v 12h 6a 6 6, 0, 0, 0, 0 -12" transform="rotate(0,178,370)"/><path d="M 172 388v 12h 12v -6a 6 6, 0, 0, 0, -6 -6" transform="rotate(0,178,394)"/><path d="M 172 400v 12h 12v -6a 6 6, 0, 0, 0, -6 -6" transform="rotate(180,178,406)"/><circle cx="178" cy="430" r="6" transform="rotate(0,178,430)"/><path d="M 172 448v 12h 6a 6 6, 0, 0, 0, 0 -12" transform="rotate(-90,178,454)"/><path d="M 172 460v 12h 6a 6 6, 0, 0, 0, 0 -12" transform="rotate(90,178,466)"/><path d="M 184 64v 12h 6a 6 6, 0, 0, 0, 0 -12" transform="rotate(0,190,70)"/><path d="M 184 136v 12h 12v -6a 6 6, 0, 0, 0, -6 -6" transform="rotate(-90,190,142)"/><rect x="184" y="148" width="12" height="12" transform="rotate(0,190,154)"/><path d="M 184 160v 12h 6a 6 6, 0, 0, 0, 0 -12" transform="rotate(90,190,166)"/><path d="M 184 232v 12h 6a 6 6, 0, 0, 0, 0 -12" transform="rotate(180,190,238)"/><path d="M 184 268v 12h 6a 6 6, 0, 0, 0, 0 -12" transform="rotate(-90,190,274)"/><path d="M 184 280v 12h 6a 6 6, 0, 0, 0, 0 -12" transform="rotate(90,190,286)"/><circle cx="190" cy="310" r="6" transform="rotate(0,190,310)"/><path d="M 184 340v 12h 6a 6 6, 0, 0, 0, 0 -12" transform="rotate(-90,190,346)"/><path d="M 184 352v 12h 12v -6a 6 6, 0, 0, 0, -6 -6" transform="rotate(180,190,358)"/><circle cx="190" cy="382" r="6" transform="rotate(0,190,382)"/><rect x="184" y="400" width="12" height="12" transform="rotate(0,190,406)"/><circle cx="190" cy="442" r="6" transform="rotate(0,190,442)"/><path d="M 196 28v 12h 6a 6 6, 0, 0, 0, 0 -12" transform="rotate(-90,202,34)"/><rect x="196" y="40" width="12" height="12" transform="rotate(0,202,46)"/><path d="M 196 52v 12h 12v -6a 6 6, 0, 0, 0, -6 -6" transform="rotate(180,202,58)"/><circle cx="202" cy="106" r="6" transform="rotate(0,202,106)"/><path d="M 196 124v 12h 12v -6a 6 6, 0, 0, 0, -6 -6" transform="rotate(-90,202,130)"/><rect x="196" y="136" width="12" height="12" transform="rotate(0,202,142)"/><rect x="196" y="148" width="12" height="12" transform="rotate(0,202,154)"/><path d="M 196 184v 12h 6a 6 6, 0, 0, 0, 0 -12" transform="rotate(-90,202,190)"/><rect x="196" y="196" width="12" height="12" transform="rotate(0,202,202)"/><rect x="196" y="208" width="12" height="12" transform="rotate(0,202,214)"/><rect x="196" y="220" width="12" height="12" transform="rotate(0,202,226)"/><path d="M 196 232v 12h 12v -6a 6 6, 0, 0, 0, -6 -6" transform="rotate(90,202,238)"/><path d="M 196 256v 12h 6a 6 6, 0, 0, 0, 0 -12" transform="rotate(180,202,262)"/><path d="M 196 292v 12h 6a 6 6, 0, 0, 0, 0 -12" transform="rotate(180,202,298)"/><path d="M 196 316v 12h 6a 6 6, 0, 0, 0, 0 -12" transform="rotate(-90,202,322)"/><path d="M 196 328v 12h 6a 6 6, 0, 0, 0, 0 -12" transform="rotate(90,202,334)"/><path d="M 196 352v 12h 12v -6a 6 6, 0, 0, 0, -6 -6" transform="rotate(0,202,358)"/><path d="M 196 364v 12h 6a 6 6, 0, 0, 0, 0 -12" transform="rotate(90,202,370)"/><rect x="196" y="400" width="12" height="12" transform="rotate(0,202,406)"/><path d="M 196 424v 12h 6a 6 6, 0, 0, 0, 0 -12" transform="rotate(180,202,430)"/><path d="M 196 448v 12h 6a 6 6, 0, 0, 0, 0 -12" transform="rotate(-90,202,454)"/><path d="M 196 460v 12h 6a 6 6, 0, 0, 0, 0 -12" transform="rotate(90,202,466)"/><path d="M 208 52v 12h 6a 6 6, 0, 0, 0, 0 -12" transform="rotate(0,214,58)"/><path d="M 208 88v 12h 6a 6 6, 0, 0, 0, 0 -12" transform="rotate(180,214,94)"/><path d="M 208 112v 12h 6a 6 6, 0, 0, 0, 0 -12" transform="rotate(-90,214,118)"/><path d="M 208 124v 12h 12v -6a 6 6, 0, 0, 0, -6 -6" transform="rotate(90,214,130)"/><rect x="208" y="148" width="12" height="12" transform="rotate(0,214,154)"/><rect x="208" y="208" width="12" height="12" transform="rotate(0,214,214)"/><path d="M 208 256v 12h 12v -6a 6 6, 0, 0, 0, -6 -6" transform="rotate(0,214,262)"/><rect x="208" y="268" width="12" height="12" transform="rotate(0,214,274)"/><rect x="208" y="280" width="12" height="12" transform="rotate(0,214,286)"/><rect x="208" y="292" width="12" height="12" transform="rotate(0,214,298)"/><path d="M 208 304v 12h 12v -6a 6 6, 0, 0, 0, -6 -6" transform="rotate(180,214,310)"/><circle cx="214" cy="346" r="6" transform="rotate(0,214,346)"/><path d="M 208 376v 12h 12v -6a 6 6, 0, 0, 0, -6 -6" transform="rotate(-90,214,382)"/><rect x="208" y="388" width="12" height="12" transform="rotate(0,214,394)"/><path d="M 208 400v 12h 12v -6a 6 6, 0, 0, 0, -6 -6" transform="rotate(90,214,406)"/><path d="M 208 424v 12h 12v -6a 6 6, 0, 0, 0, -6 -6" transform="rotate(0,214,430)"/><path d="M 208 436v 12h 12v -6a 6 6, 0, 0, 0, -6 -6" transform="rotate(180,214,442)"/><path d="M 220 40v 12h 6a 6 6, 0, 0, 0, 0 -12" transform="rotate(180,226,46)"/><rect x="220" y="88" width="12" height="12" transform="rotate(0,226,94)"/><path d="M 220 100v 12h 6a 6 6, 0, 0, 0, 0 -12" transform="rotate(90,226,106)"/><path d="M 220 136v 12h 6a 6 6, 0, 0, 0, 0 -12" transform="rotate(-90,226,142)"/><rect x="220" y="148" width="12" height="12" transform="rotate(0,226,154)"/><circle cx="226" cy="178" r="6" transform="rotate(0,226,178)"/><path d="M 220 208v 12h 6a 6 6, 0, 0, 0, 0 -12" transform="rotate(0,226,214)"/><path d="M 220 232v 12h 6a 6 6, 0, 0, 0, 0 -12" transform="rotate(180,226,238)"/><rect x="220" y="268" width="12" height="12" transform="rotate(0,226,274)"/><rect x="220" y="280" width="12" height="12" transform="rotate(0,226,286)"/><rect x="220" y="292" width="12" height="12" transform="rotate(0,226,298)"/><rect x="220" y="304" width="12" height="12" transform="rotate(0,226,310)"/><rect x="220" y="316" width="12" height="12" transform="rotate(0,226,322)"/><path d="M 220 328v 12h 6a 6 6, 0, 0, 0, 0 -12" transform="rotate(90,226,334)"/><path d="M 220 364v 12h 12v -6a 6 6, 0, 0, 0, -6 -6" transform="rotate(-90,226,370)"/><rect x="220" y="376" width="12" height="12" transform="rotate(0,226,382)"/><path d="M 220 388v 12h 12v -6a 6 6, 0, 0, 0, -6 -6" transform="rotate(90,226,394)"/><circle cx="226" cy="418" r="6" transform="rotate(0,226,418)"/><path d="M 220 436v 12h 12v -6a 6 6, 0, 0, 0, -6 -6" transform="rotate(0,226,442)"/><path d="M 220 448v 12h 6a 6 6, 0, 0, 0, 0 -12" transform="rotate(90,226,454)"/><rect x="232" y="40" width="12" height="12" transform="rotate(0,238,46)"/><path d="M 232 64v 12h 6a 6 6, 0, 0, 0, 0 -12" transform="rotate(-90,238,70)"/><rect x="232" y="76" width="12" height="12" transform="rotate(0,238,82)"/><rect x="232" y="88" width="12" height="12" transform="rotate(0,238,94)"/><circle cx="238" cy="118" r="6" transform="rotate(0,238,118)"/><path d="M 232 148v 12h 12v -6a 6 6, 0, 0, 0, -6 -6" transform="rotate(0,238,154)"/><path d="M 232 160v 12h 6a 6 6, 0, 0, 0, 0 -12" transform="rotate(90,238,166)"/><path d="M 232 220v 12h 6a 6 6, 0, 0, 0, 0 -12" transform="rotate(-90,238,226)"/><rect x="232" y="232" width="12" height="12" transform="rotate(0,238,238)"/><path d="M 232 256v 12h 6a 6 6, 0, 0, 0, 0 -12" transform="rotate(-90,238,262)"/><path d="M 232 268v 12h 12v -6a 6 6, 0, 0, 0, -6 -6" transform="rotate(90,238,274)"/><path d="M 232 352v 12h 12v -6a 6 6, 0, 0, 0, -6 -6" transform="rotate(-90,238,358)"/><rect x="232" y="364" width="12" height="12" transform="rotate(0,238,370)"/><path d="M 232 376v 12h 12v -6a 6 6, 0, 0, 0, -6 -6" transform="rotate(90,238,382)"/><circle cx="238" cy="406" r="6" transform="rotate(0,238,406)"/><circle cx="238" cy="430" r="6" transform="rotate(0,238,430)"/><path d="M 244 28v 12h 6a 6 6, 0, 0, 0, 0 -12" transform="rotate(-90,250,34)"/><path d="M 244 40v 12h 12v -6a 6 6, 0, 0, 0, -6 -6" transform="rotate(90,250,46)"/><rect x="244" y="76" width="12" height="12" transform="rotate(0,250,82)"/><rect x="244" y="88" width="12" height="12" transform="rotate(0,250,94)"/><path d="M 244 100v 12h 6a 6 6, 0, 0, 0, 0 -12" transform="rotate(90,250,106)"/><path d="M 244 124v 12h 12v -6a 6 6, 0, 0, 0, -6 -6" transform="rotate(-90,250,130)"/><path d="M 244 136v 12h 12v -6a 6 6, 0, 0, 0, -6 -6" transform="rotate(180,250,142)"/><path d="M 244 184v 12h 6a 6 6, 0, 0, 0, 0 -12" transform="rotate(-90,250,190)"/><rect x="244" y="196" width="12" height="12" transform="rotate(0,250,202)"/><path d="M 244 208v 12h 6a 6 6, 0, 0, 0, 0 -12" transform="rotate(90,250,214)"/><rect x="244" y="232" width="12" height="12" transform="rotate(0,250,238)"/><path d="M 244 316v 12h 6a 6 6, 0, 0, 0, 0 -12" transform="rotate(-90,250,322)"/><path d="M 244 328v 12h 6a 6 6, 0, 0, 0, 0 -12" transform="rotate(90,250,334)"/><path d="M 244 352v 12h 12v -6a 6 6, 0, 0, 0, -6 -6" transform="rotate(0,250,358)"/><path d="M 244 364v 12h 12v -6a 6 6, 0, 0, 0, -6 -6" transform="rotate(90,250,370)"/><circle cx="250" cy="394" r="6" transform="rotate(0,250,394)"/><circle cx="250" cy="466" r="6" transform="rotate(0,250,466)"/><circle cx="262" cy="58" r="6" transform="rotate(0,262,58)"/><rect x="256" y="76" width="12" height="12" transform="rotate(0,262,82)"/><path d="M 256 88v 12h 12v -6a 6 6, 0, 0, 0, -6 -6" transform="rotate(90,262,94)"/><path d="M 256 112v 12h 6a 6 6, 0, 0, 0, 0 -12" transform="rotate(-90,262,118)"/><rect x="256" y="124" width="12" height="12" transform="rotate(0,262,130)"/><rect x="256" y="136" width="12" height="12" transform="rotate(0,262,142)"/><path d="M 256 160v 12h 6a 6 6, 0, 0, 0, 0 -12" transform="rotate(-90,262,166)"/><path d="M 256 172v 12h 12v -6a 6 6, 0, 0, 0, -6 -6" transform="rotate(180,262,178)"/><rect x="256" y="196" width="12" height="12" transform="rotate(0,262,202)"/><rect x="256" y="232" width="12" height="12" transform="rotate(0,262,238)"/><path d="M 256 256v 12h 12v -6a 6 6, 0, 0, 0, -6 -6" transform="rotate(-90,262,262)"/><path d="M 256 268v 12h 6a 6 6, 0, 0, 0, 0 -12" transform="rotate(90,262,274)"/><path d="M 256 292v 12h 12v -6a 6 6, 0, 0, 0, -6 -6" transform="rotate(-90,262,298)"/><path d="M 256 304v 12h 12v -6a 6 6, 0, 0, 0, -6 -6" transform="rotate(180,262,310)"/><path d="M 256 400v 12h 6a 6 6, 0, 0, 0, 0 -12" transform="rotate(180,262,406)"/><path d="M 256 448v 12h 6a 6 6, 0, 0, 0, 0 -12" transform="rotate(180,262,454)"/><path d="M 268 28v 12h 6a 6 6, 0, 0, 0, 0 -12" transform="rotate(-90,274,34)"/><path d="M 268 40v 12h 6a 6 6, 0, 0, 0, 0 -12" transform="rotate(90,274,46)"/><path d="M 268 64v 12h 12v -6a 6 6, 0, 0, 0, -6 -6" transform="rotate(-90,274,70)"/><rect x="268" y="76" width="12" height="12" transform="rotate(0,274,82)"/><circle cx="274" cy="106" r="6" transform="rotate(0,274,106)"/><rect x="268" y="136" width="12" height="12" transform="rotate(0,274,142)"/><rect x="268" y="172" width="12" height="12" transform="rotate(0,274,178)"/><rect x="268" y="184" width="12" height="12" transform="rotate(0,274,190)"/><path d="M 268 196v 12h 12v -6a 6 6, 0, 0, 0, -6 -6" transform="rotate(90,274,202)"/><path d="M 268 220v 12h 6a 6 6, 0, 0, 0, 0 -12" transform="rotate(-90,274,226)"/><path d="M 268 232v 12h 12v -6a 6 6, 0, 0, 0, -6 -6" transform="rotate(90,274,238)"/><path d="M 268 256v 12h 6a 6 6, 0, 0, 0, 0 -12" transform="rotate(0,274,262)"/><rect x="268" y="292" width="12" height="12" transform="rotate(0,274,298)"/><rect x="268" y="304" width="12" height="12" transform="rotate(0,274,310)"/><rect x="268" y="316" width="12" height="12" transform="rotate(0,274,322)"/><rect x="268" y="328" width="12" height="12" transform="rotate(0,274,334)"/><path d="M 268 340v 12h 12v -6a 6 6, 0, 0, 0, -6 -6" transform="rotate(180,274,346)"/><path d="M 268 376v 12h 6a 6 6, 0, 0, 0, 0 -12" transform="rotate(-90,274,382)"/><rect x="268" y="388" width="12" height="12" transform="rotate(0,274,394)"/><rect x="268" y="400" width="12" height="12" transform="rotate(0,274,406)"/><rect x="268" y="412" width="12" height="12" transform="rotate(0,274,418)"/><rect x="268" y="424" width="12" height="12" transform="rotate(0,274,430)"/><rect x="268" y="436" width="12" height="12" transform="rotate(0,274,442)"/><path d="M 268 448v 12h 12v -6a 6 6, 0, 0, 0, -6 -6" transform="rotate(90,274,454)"/><path d="M 280 52v 12h 6a 6 6, 0, 0, 0, 0 -12" transform="rotate(-90,286,58)"/><rect x="280" y="64" width="12" height="12" transform="rotate(0,286,70)"/><rect x="280" y="76" width="12" height="12" transform="rotate(0,286,82)"/><path d="M 280 88v 12h 6a 6 6, 0, 0, 0, 0 -12" transform="rotate(90,286,94)"/><path d="M 280 136v 12h 6a 6 6, 0, 0, 0, 0 -12" transform="rotate(0,286,142)"/><rect x="280" y="172" width="12" height="12" transform="rotate(0,286,178)"/><path d="M 280 184v 12h 12v -6a 6 6, 0, 0, 0, -6 -6" transform="rotate(90,286,190)"/><circle cx="286" cy="214" r="6" transform="rotate(0,286,214)"/><path d="M 280 244v 12h 6a 6 6, 0, 0, 0, 0 -12" transform="rotate(180,286,250)"/><circle cx="286" cy="274" r="6" transform="rotate(0,286,274)"/><rect x="280" y="292" width="12" height="12" transform="rotate(0,286,298)"/><path d="M 280 304v 12h 12v -6a 6 6, 0, 0, 0, -6 -6" transform="rotate(90,286,310)"/><rect x="280" y="328" width="12" height="12" transform="rotate(0,286,334)"/><rect x="280" y="340" width="12" height="12" transform="rotate(0,286,346)"/><rect x="280" y="352" width="12" height="12" transform="rotate(0,286,358)"/><path d="M 280 364v 12h 6a 6 6, 0, 0, 0, 0 -12" transform="rotate(90,286,370)"/><path d="M 280 400v 12h 12v -6a 6 6, 0, 0, 0, -6 -6" transform="rotate(0,286,406)"/><path d="M 280 412v 12h 12v -6a 6 6, 0, 0, 0, -6 -6" transform="rotate(90,286,418)"/><circle cx="298" cy="34" r="6" transform="rotate(0,298,34)"/><circle cx="298" cy="106" r="6" transform="rotate(0,298,106)"/><circle cx="298" cy="154" r="6" transform="rotate(0,298,154)"/><rect x="292" y="172" width="12" height="12" transform="rotate(0,298,178)"/><path d="M 292 196v 12h 6a 6 6, 0, 0, 0, 0 -12" transform="rotate(180,298,202)"/><path d="M 292 232v 12h 12v -6a 6 6, 0, 0, 0, -6 -6" transform="rotate(-90,298,238)"/><rect x="292" y="244" width="12" height="12" transform="rotate(0,298,250)"/><rect x="292" y="292" width="12" height="12" transform="rotate(0,298,298)"/><rect x="292" y="328" width="12" height="12" transform="rotate(0,298,334)"/><rect x="292" y="340" width="12" height="12" transform="rotate(0,298,346)"/><rect x="292" y="352" width="12" height="12" transform="rotate(0,298,358)"/><circle cx="298" cy="382" r="6" transform="rotate(0,298,382)"/><path d="M 292 436v 12h 6a 6 6, 0, 0, 0, 0 -12" transform="rotate(-90,298,442)"/><rect x="292" y="448" width="12" height="12" transform="rotate(0,298,454)"/><path d="M 292 460v 12h 6a 6 6, 0, 0, 0, 0 -12" transform="rotate(90,298,466)"/><path d="M 304 40v 12h 6a 6 6, 0, 0, 0, 0 -12" transform="rotate(-90,310,46)"/><rect x="304" y="52" width="12" height="12" transform="rotate(0,310,58)"/><rect x="304" y="64" width="12" height="12" transform="rotate(0,310,70)"/><rect x="304" y="76" width="12" height="12" transform="rotate(0,310,82)"/><path d="M 304 88v 12h 12v -6a 6 6, 0, 0, 0, -6 -6" transform="rotate(180,310,94)"/><path d="M 304 172v 12h 12v -6a 6 6, 0, 0, 0, -6 -6" transform="rotate(0,310,178)"/><rect x="304" y="184" width="12" height="12" transform="rotate(0,310,190)"/><path d="M 304 196v 12h 12v -6a 6 6, 0, 0, 0, -6 -6" transform="rotate(90,310,202)"/><path d="M 304 220v 12h 6a 6 6, 0, 0, 0, 0 -12" transform="rotate(-90,310,226)"/><rect x="304" y="232" width="12" height="12" transform="rotate(0,310,238)"/><rect x="304" y="244" width="12" height="12" transform="rotate(0,310,250)"/><rect x="304" y="256" width="12" height="12" transform="rotate(0,310,262)"/><path d="M 304 268v 12h 6a 6 6, 0, 0, 0, 0 -12" transform="rotate(90,310,274)"/><path d="M 304 292v 12h 12v -6a 6 6, 0, 0, 0, -6 -6" transform="rotate(0,310,298)"/><rect x="304" y="304" width="12" height="12" transform="rotate(0,310,310)"/><rect x="304" y="316" width="12" height="12" transform="rotate(0,310,322)"/><rect x="304" y="328" width="12" height="12" transform="rotate(0,310,334)"/><path d="M 304 352v 12h 6a 6 6, 0, 0, 0, 0 -12" transform="rotate(0,310,358)"/><path d="M 304 400v 12h 6a 6 6, 0, 0, 0, 0 -12" transform="rotate(180,310,406)"/><circle cx="310" cy="430" r="6" transform="rotate(0,310,430)"/><rect x="316" y="64" width="12" height="12" transform="rotate(0,322,70)"/><path d="M 316 88v 12h 12v -6a 6 6, 0, 0, 0, -6 -6" transform="rotate(0,322,94)"/><rect x="316" y="100" width="12" height="12" transform="rotate(0,322,106)"/><path d="M 316 112v 12h 6a 6 6, 0, 0, 0, 0 -12" transform="rotate(90,322,118)"/><path d="M 316 148v 12h 12v -6a 6 6, 0, 0, 0, -6 -6" transform="rotate(-90,322,154)"/><path d="M 316 160v 12h 12v -6a 6 6, 0, 0, 0, -6 -6" transform="rotate(180,322,166)"/><path d="M 316 184v 12h 6a 6 6, 0, 0, 0, 0 -12" transform="rotate(0,322,190)"/><rect x="316" y="232" width="12" height="12" transform="rotate(0,322,238)"/><rect x="316" y="304" width="12" height="12" transform="rotate(0,322,310)"/><rect x="316" y="316" width="12" height="12" transform="rotate(0,322,322)"/><path d="M 316 328v 12h 12v -6a 6 6, 0, 0, 0, -6 -6" transform="rotate(90,322,334)"/><rect x="316" y="400" width="12" height="12" transform="rotate(0,322,406)"/><path d="M 316 412v 12h 12v -6a 6 6, 0, 0, 0, -6 -6" transform="rotate(180,322,418)"/><path d="M 316 448v 12h 12v -6a 6 6, 0, 0, 0, -6 -6" transform="rotate(-90,322,454)"/><path d="M 316 460v 12h 6a 6 6, 0, 0, 0, 0 -12" transform="rotate(90,322,466)"/><path d="M 328 28v 12h 6a 6 6, 0, 0, 0, 0 -12" transform="rotate(180,334,34)"/><path d="M 328 52v 12h 12v -6a 6 6, 0, 0, 0, -6 -6" transform="rotate(-90,334,58)"/><rect x="328" y="64" width="12" height="12" transform="rotate(0,334,70)"/><path d="M 328 76v 12h 12v -6a 6 6, 0, 0, 0, -6 -6" transform="rotate(180,334,82)"/><path d="M 328 124v 12h 6a 6 6, 0, 0, 0, 0 -12" transform="rotate(-90,334,130)"/><rect x="328" y="136" width="12" height="12" transform="rotate(0,334,142)"/><rect x="328" y="148" width="12" height="12" transform="rotate(0,334,154)"/><rect x="328" y="160" width="12" height="12" transform="rotate(0,334,166)"/><path d="M 328 172v 12h 12v -6a 6 6, 0, 0, 0, -6 -6" transform="rotate(180,334,178)"/><path d="M 328 196v 12h 6a 6 6, 0, 0, 0, 0 -12" transform="rotate(180,334,202)"/><rect x="328" y="232" width="12" height="12" transform="rotate(0,334,238)"/><rect x="328" y="244" width="12" height="12" transform="rotate(0,334,250)"/><rect x="328" y="256" width="12" height="12" transform="rotate(0,334,262)"/><rect x="328" y="268" width="12" height="12" transform="rotate(0,334,274)"/><path d="M 328 280v 12h 6a 6 6, 0, 0, 0, 0 -12" transform="rotate(90,334,286)"/><path d="M 328 304v 12h 6a 6 6, 0, 0, 0, 0 -12" transform="rotate(0,334,310)"/><path d="M 328 388v 12h 12v -6a 6 6, 0, 0, 0, -6 -6" transform="rotate(-90,334,394)"/><rect x="328" y="400" width="12" height="12" transform="rotate(0,334,406)"/><rect x="328" y="412" width="12" height="12" transform="rotate(0,334,418)"/><rect x="328" y="424" width="12" height="12" transform="rotate(0,334,430)"/><rect x="328" y="436" width="12" height="12" transform="rotate(0,334,442)"/><rect x="328" y="448" width="12" height="12" transform="rotate(0,334,454)"/><rect x="340" y="28" width="12" height="12" transform="rotate(0,346,34)"/><path d="M 340 52v 12h 6a 6 6, 0, 0, 0, 0 -12" transform="rotate(0,346,58)"/><rect x="340" y="76" width="12" height="12" transform="rotate(0,346,82)"/><circle cx="346" cy="106" r="6" transform="rotate(0,346,106)"/><path d="M 340 136v 12h 6a 6 6, 0, 0, 0, 0 -12" transform="rotate(0,346,142)"/><rect x="340" y="160" width="12" height="12" transform="rotate(0,346,166)"/><rect x="340" y="172" width="12" height="12" transform="rotate(0,346,178)"/><rect x="340" y="184" width="12" height="12" transform="rotate(0,346,190)"/><rect x="340" y="196" width="12" height="12" transform="rotate(0,346,202)"/><path d="M 340 208v 12h 6a 6 6, 0, 0, 0, 0 -12" transform="rotate(90,346,214)"/><rect x="340" y="232" width="12" height="12" transform="rotate(0,346,238)"/><rect x="340" y="244" width="12" height="12" transform="rotate(0,346,250)"/><path d="M 340 268v 12h 6a 6 6, 0, 0, 0, 0 -12" transform="rotate(0,346,274)"/><circle cx="346" cy="298" r="6" transform="rotate(0,346,298)"/><path d="M 340 340v 12h 12v -6a 6 6, 0, 0, 0, -6 -6" transform="rotate(-90,346,346)"/><rect x="340" y="352" width="12" height="12" transform="rotate(0,346,358)"/><path d="M 340 364v 12h 12v -6a 6 6, 0, 0, 0, -6 -6" transform="rotate(180,346,370)"/><path d="M 340 388v 12h 6a 6 6, 0, 0, 0, 0 -12" transform="rotate(0,346,394)"/><path d="M 340 412v 12h 6a 6 6, 0, 0, 0, 0 -12" transform="rotate(0,346,418)"/><rect x="340" y="436" width="12" height="12" transform="rotate(0,346,442)"/><rect x="340" y="448" width="12" height="12" transform="rotate(0,346,454)"/><path d="M 340 460v 12h 6a 6 6, 0, 0, 0, 0 -12" transform="rotate(90,346,466)"/><rect x="352" y="28" width="12" height="12" transform="rotate(0,358,34)"/><path d="M 352 76v 12h 12v -6a 6 6, 0, 0, 0, -6 -6" transform="rotate(0,358,82)"/><path d="M 352 88v 12h 12v -6a 6 6, 0, 0, 0, -6 -6" transform="rotate(180,358,94)"/><path d="M 352 124v 12h 6a 6 6, 0, 0, 0, 0 -12" transform="rotate(180,358,130)"/><path d="M 352 148v 12h 6a 6 6, 0, 0, 0, 0 -12" transform="rotate(-90,358,154)"/><rect x="352" y="160" width="12" height="12" transform="rotate(0,358,166)"/><path d="M 352 184v 12h 6a 6 6, 0, 0, 0, 0 -12" transform="rotate(0,358,190)"/><path d="M 352 220v 12h 6a 6 6, 0, 0, 0, 0 -12" transform="rotate(-90,358,226)"/><rect x="352" y="232" width="12" height="12" transform="rotate(0,358,238)"/><rect x="352" y="244" width="12" height="12" transform="rotate(0,358,250)"/><path d="M 352 256v 12h 6a 6 6, 0, 0, 0, 0 -12" transform="rotate(90,358,262)"/><path d="M 352 316v 12h 6a 6 6, 0, 0, 0, 0 -12" transform="rotate(180,358,322)"/><rect x="352" y="340" width="12" height="12" transform="rotate(0,358,346)"/><rect x="352" y="364" width="12" height="12" transform="rotate(0,358,370)"/><path d="M 352 376v 12h 12v -6a 6 6, 0, 0, 0, -6 -6" transform="rotate(180,358,382)"/><path d="M 352 400v 12h 6a 6 6, 0, 0, 0, 0 -12" transform="rotate(180,358,406)"/><path d="M 352 436v 12h 12v -6a 6 6, 0, 0, 0, -6 -6" transform="rotate(0,358,442)"/><rect x="352" y="448" width="12" height="12" transform="rotate(0,358,454)"/><path d="M 364 28v 12h 6a 6 6, 0, 0, 0, 0 -12" transform="rotate(0,370,34)"/><circle cx="370" cy="70" r="6" transform="rotate(0,370,70)"/><path d="M 364 88v 12h 12v -6a 6 6, 0, 0, 0, -6 -6" transform="rotate(0,370,94)"/><rect x="364" y="100" width="12" height="12" transform="rotate(0,370,106)"/><rect x="364" y="112" width="12" height="12" transform="rotate(0,370,118)"/><rect x="364" y="124" width="12" height="12" transform="rotate(0,370,130)"/><path d="M 364 160v 12h 6a 6 6, 0, 0, 0, 0 -12" transform="rotate(0,370,166)"/><circle cx="370" cy="202" r="6" transform="rotate(0,370,202)"/><path d="M 364 244v 12h 6a 6 6, 0, 0, 0, 0 -12" transform="rotate(0,370,250)"/><circle cx="370" cy="274" r="6" transform="rotate(0,370,274)"/><path d="M 364 292v 12h 6a 6 6, 0, 0, 0, 0 -12" transform="rotate(-90,370,298)"/><rect x="364" y="304" width="12" height="12" transform="rotate(0,370,310)"/><rect x="364" y="316" width="12" height="12" transform="rotate(0,370,322)"/><rect x="364" y="328" width="12" height="12" transform="rotate(0,370,334)"/><rect x="364" y="340" width="12" height="12" transform="rotate(0,370,346)"/><rect x="364" y="352" width="12" height="12" transform="rotate(0,370,358)"/><rect x="364" y="364" width="12" height="12" transform="rotate(0,370,370)"/><rect x="364" y="376" width="12" height="12" transform="rotate(0,370,382)"/><rect x="364" y="388" width="12" height="12" transform="rotate(0,370,394)"/><rect x="364" y="400" width="12" height="12" transform="rotate(0,370,406)"/><rect x="364" y="412" width="12" height="12" transform="rotate(0,370,418)"/><path d="M 364 424v 12h 12v -6a 6 6, 0, 0, 0, -6 -6" transform="rotate(180,370,430)"/><path d="M 364 448v 12h 6a 6 6, 0, 0, 0, 0 -12" transform="rotate(0,370,454)"/><rect x="376" y="124" width="12" height="12" transform="rotate(0,382,130)"/><path d="M 376 172v 12h 6a 6 6, 0, 0, 0, 0 -12" transform="rotate(180,382,178)"/><path d="M 376 208v 12h 6a 6 6, 0, 0, 0, 0 -12" transform="rotate(-90,382,214)"/><path d="M 376 220v 12h 6a 6 6, 0, 0, 0, 0 -12" transform="rotate(90,382,226)"/><rect x="376" y="304" width="12" height="12" transform="rotate(0,382,310)"/><path d="M 376 328v 12h 6a 6 6, 0, 0, 0, 0 -12" transform="rotate(0,382,334)"/><rect x="376" y="364" width="12" height="12" transform="rotate(0,382,370)"/><rect x="376" y="412" width="12" height="12" transform="rotate(0,382,418)"/><rect x="376" y="424" width="12" height="12" transform="rotate(0,382,430)"/><path d="M 388 124v 12h 12v -6a 6 6, 0, 0, 0, -6 -6" transform="rotate(0,394,130)"/><rect x="388" y="136" width="12" height="12" transform="rotate(0,394,142)"/><path d="M 388 148v 12h 6a 6 6, 0, 0, 0, 0 -12" transform="rotate(90,394,154)"/><rect x="388" y="172" width="12" height="12" transform="rotate(0,394,178)"/><circle cx="394" cy="202" r="6" transform="rotate(0,394,202)"/><circle cx="394" cy="262" r="6" transform="rotate(0,394,262)"/><path d="M 388 280v 12h 6a 6 6, 0, 0, 0, 0 -12" transform="rotate(-90,394,286)"/><rect x="388" y="292" width="12" height="12" transform="rotate(0,394,298)"/><path d="M 388 304v 12h 12v -6a 6 6, 0, 0, 0, -6 -6" transform="rotate(90,394,310)"/><rect x="388" y="364" width="12" height="12" transform="rotate(0,394,370)"/><circle cx="394" cy="394" r="6" transform="rotate(0,394,394)"/><rect x="388" y="412" width="12" height="12" transform="rotate(0,394,418)"/><rect x="388" y="424" width="12" height="12" transform="rotate(0,394,430)"/><path d="M 388 436v 12h 6a 6 6, 0, 0, 0, 0 -12" transform="rotate(90,394,442)"/><circle cx="394" cy="466" r="6" transform="rotate(0,394,466)"/><path d="M 400 136v 12h 6a 6 6, 0, 0, 0, 0 -12" transform="rotate(0,406,142)"/><path d="M 400 172v 12h 6a 6 6, 0, 0, 0, 0 -12" transform="rotate(0,406,178)"/><circle cx="406" cy="214" r="6" transform="rotate(0,406,214)"/><circle cx="406" cy="250" r="6" transform="rotate(0,406,250)"/><path d="M 400 292v 12h 6a 6 6, 0, 0, 0, 0 -12" transform="rotate(0,406,298)"/><circle cx="406" cy="322" r="6" transform="rotate(0,406,322)"/><path d="M 400 352v 12h 12v -6a 6 6, 0, 0, 0, -6 -6" transform="rotate(-90,406,358)"/><rect x="400" y="364" width="12" height="12" transform="rotate(0,406,370)"/><rect x="400" y="412" width="12" height="12" transform="rotate(0,406,418)"/><path d="M 400 424v 12h 12v -6a 6 6, 0, 0, 0, -6 -6" transform="rotate(90,406,430)"/><path d="M 400 448v 12h 6a 6 6, 0, 0, 0, 0 -12" transform="rotate(180,406,454)"/><path d="M 412 160v 12h 6a 6 6, 0, 0, 0, 0 -12" transform="rotate(180,418,166)"/><path d="M 412 184v 12h 12v -6a 6 6, 0, 0, 0, -6 -6" transform="rotate(-90,418,190)"/><path d="M 412 196v 12h 12v -6a 6 6, 0, 0, 0, -6 -6" transform="rotate(180,418,202)"/><circle cx="418" cy="286" r="6" transform="rotate(0,418,286)"/><path d="M 412 328v 12h 6a 6 6, 0, 0, 0, 0 -12" transform="rotate(-90,418,334)"/><rect x="412" y="340" width="12" height="12" transform="rotate(0,418,346)"/><rect x="412" y="352" width="12" height="12" transform="rotate(0,418,358)"/><rect x="412" y="364" width="12" height="12" transform="rotate(0,418,370)"/><rect x="412" y="376" width="12" height="12" transform="rotate(0,418,382)"/><rect x="412" y="388" width="12" height="12" transform="rotate(0,418,394)"/><rect x="412" y="400" width="12" height="12" transform="rotate(0,418,406)"/><path d="M 412 412v 12h 12v -6a 6 6, 0, 0, 0, -6 -6" transform="rotate(90,418,418)"/><path d="M 412 436v 12h 6a 6 6, 0, 0, 0, 0 -12" transform="rotate(-90,418,442)"/><path d="M 412 448v 12h 12v -6a 6 6, 0, 0, 0, -6 -6" transform="rotate(90,418,454)"/><path d="M 424 136v 12h 6a 6 6, 0, 0, 0, 0 -12" transform="rotate(180,430,142)"/><path d="M 424 160v 12h 12v -6a 6 6, 0, 0, 0, -6 -6" transform="rotate(0,430,166)"/><rect x="424" y="172" width="12" height="12" transform="rotate(0,430,178)"/><rect x="424" y="184" width="12" height="12" transform="rotate(0,430,190)"/><rect x="424" y="196" width="12" height="12" transform="rotate(0,430,202)"/><rect x="424" y="208" width="12" height="12" transform="rotate(0,430,214)"/><path d="M 424 220v 12h 6a 6 6, 0, 0, 0, 0 -12" transform="rotate(90,430,226)"/><circle cx="430" cy="250" r="6" transform="rotate(0,430,250)"/><circle cx="430" cy="322" r="6" transform="rotate(0,430,322)"/><path d="M 424 340v 12h 6a 6 6, 0, 0, 0, 0 -12" transform="rotate(0,430,346)"/><path d="M 424 364v 12h 6a 6 6, 0, 0, 0, 0 -12" transform="rotate(0,430,370)"/><path d="M 424 388v 12h 6a 6 6, 0, 0, 0, 0 -12" transform="rotate(0,430,394)"/><path d="M 424 424v 12h 6a 6 6, 0, 0, 0, 0 -12" transform="rotate(180,430,430)"/><rect x="436" y="136" width="12" height="12" transform="rotate(0,442,142)"/><rect x="436" y="184" width="12" height="12" transform="rotate(0,442,190)"/><rect x="436" y="208" width="12" height="12" transform="rotate(0,442,214)"/><circle cx="442" cy="238" r="6" transform="rotate(0,442,238)"/><path d="M 436 256v 12h 6a 6 6, 0, 0, 0, 0 -12" transform="rotate(180,442,262)"/><circle cx="442" cy="286" r="6" transform="rotate(0,442,286)"/><path d="M 436 376v 12h 6a 6 6, 0, 0, 0, 0 -12" transform="rotate(180,442,382)"/><rect x="436" y="424" width="12" height="12" transform="rotate(0,442,430)"/><path d="M 436 436v 12h 6a 6 6, 0, 0, 0, 0 -12" transform="rotate(90,442,442)"/><path d="M 436 460v 12h 6a 6 6, 0, 0, 0, 0 -12" transform="rotate(180,442,466)"/><path d="M 448 124v 12h 6a 6 6, 0, 0, 0, 0 -12" transform="rotate(-90,454,130)"/><rect x="448" y="136" width="12" height="12" transform="rotate(0,454,142)"/><rect x="448" y="148" width="12" height="12" transform="rotate(0,454,154)"/><path d="M 448 160v 12h 6a 6 6, 0, 0, 0, 0 -12" transform="rotate(90,454,166)"/><rect x="448" y="184" width="12" height="12" transform="rotate(0,454,190)"/><rect x="448" y="196" width="12" height="12" transform="rotate(0,454,202)"/><rect x="448" y="208" width="12" height="12" transform="rotate(0,454,214)"/><path d="M 448 244v 12h 6a 6 6, 0, 0, 0, 0 -12" transform="rotate(-90,454,250)"/><rect x="448" y="256" width="12" height="12" transform="rotate(0,454,262)"/><path d="M 448 268v 12h 6a 6 6, 0, 0, 0, 0 -12" transform="rotate(90,454,274)"/><circle cx="454" cy="298" r="6" transform="rotate(0,454,298)"/><circle cx="454" cy="322" r="6" transform="rotate(0,454,322)"/><circle cx="454" cy="346" r="6" transform="rotate(0,454,346)"/><path d="M 448 364v 12h 12v -6a 6 6, 0, 0, 0, -6 -6" transform="rotate(-90,454,370)"/><rect x="448" y="376" width="12" height="12" transform="rotate(0,454,382)"/><rect x="448" y="388" width="12" height="12" transform="rotate(0,454,394)"/><rect x="448" y="400" width="12" height="12" transform="rotate(0,454,406)"/><rect x="448" y="412" width="12" height="12" transform="rotate(0,454,418)"/><rect x="448" y="424" width="12" height="12" transform="rotate(0,454,430)"/><rect x="448" y="460" width="12" height="12" transform="rotate(0,454,466)"/><path d="M 460 136v 12h 6a 6 6, 0, 0, 0, 0 -12" transform="rotate(0,466,142)"/><path d="M 460 172v 12h 6a 6 6, 0, 0, 0, 0 -12" transform="rotate(-90,466,178)"/><path d="M 460 184v 12h 12v -6a 6 6, 0, 0, 0, -6 -6" transform="rotate(90,466,190)"/><path d="M 460 208v 12h 6a 6 6, 0, 0, 0, 0 -12" transform="rotate(0,466,214)"/><circle cx="466" cy="310" r="6" transform="rotate(0,466,310)"/><path d="M 460 364v 12h 12v -6a 6 6, 0, 0, 0, -6 -6" transform="rotate(0,466,370)"/><rect x="460" y="376" width="12" height="12" transform="rotate(0,466,382)"/><rect x="460" y="388" width="12" height="12" transform="rotate(0,466,394)"/><rect x="460" y="400" width="12" height="12" transform="rotate(0,466,406)"/><rect x="460" y="412" width="12" height="12" transform="rotate(0,466,418)"/><path d="M 460 424v 12h 12v -6a 6 6, 0, 0, 0, -6 -6" transform="rotate(90,466,430)"/><path d="M 460 460v 12h 6a 6 6, 0, 0, 0, 0 -12" transform="rotate(0,466,466)"/><path clip-rule="evenodd" d="M 28 28v 84h 84v -84zM 40 40h 60v 60h -60z" transform="rotate(0,70,70)"/><rect x="52" y="52" width="36" height="36" transform="rotate(0,70,70)"/><path clip-rule="evenodd" d="M 388 28v 84h 84v -84zM 400 40h 60v 60h -60z" transform="rotate(90,430,70)"/><rect x="412" y="52" width="36" height="36" transform="rotate(90,430,70)"/><path clip-rule="evenodd" d="M 28 388v 84h 84v -84zM 40 400h 60v 60h -60z" transform="rotate(-90,70,430)"/><rect x="52" y="412" width="36" height="36" transform="rotate(-90,70,430)"/></clipPath></defs><rect x="0" y="0" height="500" width="500" clip-path="url('#clip-path-background-color')" fill="#fff"/><rect x="0" y="0" height="500" width="500" clip-path="url('#clip-path-dot-color')" fill="#000000"/></svg>